<?xml version="1.0"?>
<svg xmlns="http://www.w3.org/2000/svg" xmlns:xlink="http://www.w3.org/1999/xlink" xmlns:svgjs="http://svgjs.com/svgjs" version="1.1" width="512" height="512" x="0" y="0" viewBox="0 0 512.8 512.8" style="enable-background:new 0 0 512 512" xml:space="preserve" class=""><g><g xmlns="http://www.w3.org/2000/svg" fill="#ffda45"><path id="XMLID_192_" d="m75.535 159.85h50.27v30h-50.27z" fill="#ffda45" data-original="#ffda45" style=""/><path id="XMLID_191_" d="m75.535 214.98h50.27v30h-50.27z" fill="#ffda45" data-original="#ffda45" style=""/><path id="XMLID_190_" d="m75.535 270.109h50.27v30h-50.27z" fill="#ffda45" data-original="#ffda45" style=""/><path id="XMLID_189_" d="m75.535 325.239h50.27v30h-50.27z" fill="#ffda45" data-original="#ffda45" style=""/></g><path xmlns="http://www.w3.org/2000/svg" id="XMLID_187_" d="m386.995 159.85h50.27v30h-50.27z" fill="#ffaf37" data-original="#ffaf37" style="" class=""/><path xmlns="http://www.w3.org/2000/svg" id="XMLID_186_" d="m386.995 214.98h50.27v30h-50.27z" fill="#ffaf37" data-original="#ffaf37" style="" class=""/><path xmlns="http://www.w3.org/2000/svg" id="XMLID_185_" d="m386.995 270.109h50.27v30h-50.27z" fill="#ffaf37" data-original="#ffaf37" style="" class=""/><path xmlns="http://www.w3.org/2000/svg" id="XMLID_184_" d="m386.995 325.239h50.27v30h-50.27z" fill="#ffaf37" data-original="#ffaf37" style="" class=""/><path xmlns="http://www.w3.org/2000/svg" id="XMLID_565_" d="m334.376 24.3-12.189 11.193-13.167-11.193h-37.62l-14.977 11.298-15.023-11.298h-37.62l-13.463 11.193-11.893-11.193c-30.126 0-53.599 24.449-53.599 54.5 0 29.705 22.52 53.935 52.168 54.49v48.343h158.82v-48.643c29.649-.555 52.161-24.485 52.161-54.19.001-30.051-23.471-54.5-53.598-54.5z" fill="#ffda45" data-original="#ffda45" style=""/><path xmlns="http://www.w3.org/2000/svg" id="XMLID_564_" d="m334.376 24.3-12.189 11.193-13.167-11.193h-37.62l-14.977 11.298-.019 146.035h79.41v-48.643c29.649-.555 52.161-24.485 52.161-54.19 0-30.051-23.472-54.5-53.599-54.5z" fill="#ffaf37" data-original="#ffaf37" style="" class=""/><path xmlns="http://www.w3.org/2000/svg" id="XMLID_174_" d="m335.814 132.99-64.414.03v41.83h-30v-41.83l-64.406-.03v-108.69h26.786v79.44h37.62v-103.74h30v103.74h37.62v-79.44h26.794z" fill="#fff48f" data-original="#fff48f" style=""/><path xmlns="http://www.w3.org/2000/svg" id="XMLID_171_" d="m110.805 159.85v207.355c0 80.282 65.314 145.595 145.595 145.595s145.595-65.313 145.595-145.595v-207.355z" fill="#ffaf37" data-original="#ffaf37" style="" class=""/><path xmlns="http://www.w3.org/2000/svg" id="XMLID_169_" d="m256.4 233.069 27.867 56.464 62.313 9.055-45.09 43.951 10.644 62.061-55.734-29.301-55.734 29.301 10.644-62.061-45.089-43.951 62.312-9.055z" fill="#ffda45" data-original="#ffda45" style=""/><path xmlns="http://www.w3.org/2000/svg" id="XMLID_472_" d="m335.814 24.3h-26.794v79.44h-37.62v-103.74h-15v174.85h15v-41.83l64.414-.03z" fill="#ffda45" data-original="#ffda45" style=""/><path xmlns="http://www.w3.org/2000/svg" id="XMLID_468_" d="m256.4 159.85v352.95c80.281 0 145.595-65.313 145.595-145.595v-207.355z" fill="#ff8c05" data-original="#ff8c05" style="" class=""/><path xmlns="http://www.w3.org/2000/svg" id="XMLID_478_" d="m346.58 298.588-62.313-9.055-27.867-56.464v142.23l55.734 29.301-10.644-62.06z" fill="#ffaf37" data-original="#ffaf37" style="" class=""/></g></svg>
